<svg xmlns="http://www.w3.org/2000/svg" width="666.365" height="664.586" viewBox="0 0 666.365 664.586"><defs><style>.a{fill:#eaeaea;}</style></defs><path class="a" d="M418.563,664.573c-31.091,5.178-59.821,10.355-86.418,10.089-86.769-.869-130.181-22.4-201.749-18.71S2.068,692.474,2.068,692.474V608.839h2.3V101.187h-2.3v-73.3C99.189,72.874,181.6,62.608,251.938,52.34c31.09-4.538,59.821-9.076,86.419-8.842,86.768.762,130.18,19.633,201.748,16.4S668.433,27.888,668.433,27.888v73.3h-2.14V608.839h2.14v83.635C571.312,641.145,488.9,652.859,418.563,664.573Z" transform="translate(-2.068 -27.888)"/></svg>