<svg xmlns="http://www.w3.org/2000/svg" width="36.472" height="36.472" viewBox="0 0 36.472 36.472"><defs><style>.a{fill:#fff;}</style></defs><path class="a" d="M32.565,4.375H3.908A3.908,3.908,0,0,0,0,8.283V36.94a3.908,3.908,0,0,0,3.908,3.908H15.082v-12.4H9.953V22.611h5.129V18.163c0-5.06,3.012-7.855,7.626-7.855a31.072,31.072,0,0,1,4.52.394v4.966H24.682c-2.508,0-3.291,1.557-3.291,3.153v3.79h5.6l-.9,5.836h-4.7v12.4H32.565a3.908,3.908,0,0,0,3.908-3.908V8.283a3.908,3.908,0,0,0-3.908-3.908Z" transform="translate(0 -4.375)"/></svg>