<svg xmlns="http://www.w3.org/2000/svg" width="36.493" height="36.485" viewBox="0 0 36.493 36.485"><defs><style>.a{fill:#fff;}</style></defs><path class="a" d="M18.24,13.239a9.354,9.354,0,1,0,9.354,9.354A9.339,9.339,0,0,0,18.24,13.239Zm0,15.436a6.081,6.081,0,1,1,6.081-6.081A6.093,6.093,0,0,1,18.24,28.675ZM30.159,12.857a2.182,2.182,0,1,1-2.182-2.182A2.177,2.177,0,0,1,30.159,12.857Zm6.2,2.214c-.138-2.923-.806-5.512-2.947-7.645s-4.722-2.8-7.645-2.947c-3.012-.171-12.041-.171-15.053,0-2.915.138-5.5.806-7.645,2.939S.265,12.14.118,15.063c-.171,3.012-.171,12.041,0,15.053.138,2.923.806,5.512,2.947,7.645s4.722,2.8,7.645,2.947c3.012.171,12.041.171,15.053,0,2.923-.138,5.512-.806,7.645-2.947s2.8-4.722,2.947-7.645C36.525,27.1,36.525,18.083,36.354,15.071ZM32.463,33.348a6.157,6.157,0,0,1-3.468,3.468c-2.4.953-8.1.733-10.754.733s-8.361.212-10.754-.733a6.157,6.157,0,0,1-3.468-3.468c-.953-2.4-.733-8.1-.733-10.754s-.212-8.361.733-10.754A6.157,6.157,0,0,1,7.486,8.371c2.4-.953,8.1-.733,10.754-.733s8.361-.212,10.754.733a6.157,6.157,0,0,1,3.468,3.468c.953,2.4.733,8.1.733,10.754S33.415,30.954,32.463,33.348Z" transform="translate(0.01 -4.351)"/></svg>