<svg xmlns="http://www.w3.org/2000/svg" xmlns:xlink="http://www.w3.org/1999/xlink" width="1920" height="387" viewBox="0 0 1920 387"><defs><style>.a{fill:#fff;}.b{clip-path:url(#a);}.c{fill:#00506e;}</style><clipPath id="a"><rect class="a" width="1920" height="387" transform="translate(0 3215)"/></clipPath></defs><g class="b" transform="translate(0 -3215)"><path class="c" d="M-286.681,1051h19.417V823.392h-.176V800.536s149.646-49.434,452.287-48.554,551.528,51.572,839.13,51.737,502.853-35.669,634.045-52.151,21.611-11.616,21.611,71.824h-23.147V1051h3.906v22.855s-149.645,49.434-452.286,48.555-551.528-51.573-839.129-51.737-502.854,35.668-634.046,52.151c-36.8,4.624-54.659,7.568-61.3,7.568C-343.408,1130.394-286.681,1111.034-286.681,1051Z" transform="translate(267.386 2470.423)"/></g></svg>