<svg xmlns="http://www.w3.org/2000/svg" width="505.743" height="237.333" viewBox="0 0 505.743 237.333"><defs><style>.a{fill:#f8f8f8;}.b{fill:#00506e;}</style></defs><g transform="translate(46 0.379)"><rect class="a" width="429" height="189" transform="translate(-5 41.978)"/><path class="b" d="M10.014,188.732H41.106V48.6H41.03V28.265S84.325,9.065,155,9.6s129.944,15.154,186,14.86,119.046-9.74,149.683-19.83S495.73-2.479,495.73,48.6h-18.7V198.081H464.714v10.986s-43.3,19.2-113.971,18.663-129.945-15.154-186-14.86S45.7,222.609,15.061,232.7C6.466,235.53,2.3,237.332.745,237.333-3.233,237.333,10.014,225.482,10.014,188.732Z" transform="translate(-46 -0.379)"/></g></svg>