<svg xmlns="http://www.w3.org/2000/svg" width="36.472" height="36.472" viewBox="0 0 36.472 36.472"><defs><style>.a{fill:#fff;}</style></defs><path class="a" d="M33.867,4.375H2.6A2.616,2.616,0,0,0,0,7V38.218a2.616,2.616,0,0,0,2.6,2.63h31.27a2.623,2.623,0,0,0,2.605-2.63V7A2.623,2.623,0,0,0,33.867,4.375ZM11.023,35.637H5.617V18.231h5.414V35.637ZM8.32,15.854a3.134,3.134,0,1,1,3.134-3.134A3.136,3.136,0,0,1,8.32,15.854ZM31.287,35.637H25.881V27.17c0-2.019-.041-4.616-2.809-4.616-2.817,0-3.248,2.2-3.248,4.469v8.613H14.418V18.231H19.6v2.377h.073A5.694,5.694,0,0,1,24.8,17.8c5.471,0,6.489,3.607,6.489,8.3Z" transform="translate(0 -4.375)"/></svg>