<svg xmlns="http://www.w3.org/2000/svg" xmlns:xlink="http://www.w3.org/1999/xlink" width="414" height="460" viewBox="0 0 414 460"><defs><style>.a{fill:#00aeec;}.b{clip-path:url(#a);}.c{fill:#40c2f1;}.d{fill:#008abc;}</style><clipPath id="a"><rect class="a" width="414" height="460" transform="translate(349.666 5260.242)"/></clipPath></defs><g class="b" transform="translate(-349.666 -5260.242)"><path class="c" d="M333,1138.87c140.051,89.593,249.52,20.505,336.288,21.559s130.18,27.117,201.749,22.648,128.328-44.207,128.328-44.207V1240.1H333Z" transform="translate(-99.517 4393.666)"/><path class="d" d="M333,1138.87c140.051,78.433,249.52,17.951,336.288,18.873s130.18,23.739,201.749,19.827,128.328-38.7,128.328-38.7v88.623H333Z" transform="translate(-176.517 4450.093)"/><path class="c" d="M333,1138.87c140.051,88.157,249.52,20.176,336.288,21.213s130.18,26.682,201.749,22.285,128.328-43.5,128.328-43.5v99.61H333Z" transform="translate(-49.517 4481.292)"/></g></svg>